<svg id="Capa_1" enable-background="new 0 0 512 512" height="512" viewBox="0 0 512 512" width="512" xmlns="http://www.w3.org/2000/svg"><g><g><g><g fill="#bfdbff"><path d="m217.027 215.274 38.973 22.501 38.973-22.501c17.194-9.927 17.222-34.747.042-44.699-.244-.141-.488-.281-.733-.419-17.108-9.664-38.282 2.962-38.282 22.61 0-19.648-21.174-32.274-38.282-22.611-.245.139-.489.278-.733.419-17.18 9.953-17.152 34.773.042 44.7z"/><path d="m225.752 115.952 30.248 17.464 30.248-17.464c13.345-7.705 13.366-26.968.033-34.692-.189-.109-.379-.218-.569-.325-13.278-7.501-29.712 2.298-29.712 17.548 0-15.25-16.434-25.049-29.712-17.549-.19.107-.38.216-.569.325-13.334 7.725-13.312 26.988.033 34.693z"/><path d="m303.75 276.355c-.298-.173-.598-.344-.897-.513-20.938-11.827-46.853 3.625-46.853 27.672 0-24.047-25.915-39.499-46.852-27.673-.3.169-.599.34-.897.513-21.026 12.18-20.992 42.556.051 54.706l47.698 27.539 47.698-27.539c21.044-12.149 21.077-42.526.052-54.705z"/><path d="m256 70.3 17.459-30.24c7.663-13.273-1.804-29.977-17.13-30.059-.109-.001-.219-.001-.329-.001s-.22 0-.329.001c-15.326.082-24.793 16.786-17.13 30.059z"/></g><g fill="#7dd9c2"><ellipse cx="308.172" cy="422.219" rx="73.782" ry="24.95" transform="matrix(.707 -.707 .707 .707 -208.293 341.575)"/><ellipse cx="203.828" cy="422.219" rx="24.95" ry="73.782" transform="matrix(.707 -.707 .707 .707 -238.855 267.794)"/></g></g></g><g><circle cx="325.815" cy="439.862" r="10"/><path d="m367.415 362.976c-2.204-2.204-5.31-3.254-8.399-2.84-16.47 2.207-48.185 9.998-75.558 37.369-7.037 7.037-12.772 14.361-17.458 21.639v-54.772l42.698-24.652c13.015-7.514 20.791-20.973 20.802-36.002.011-15.024-7.742-28.488-20.731-36.013-.331-.192-.663-.382-.998-.571-12.875-7.272-28.221-7.143-41.052.345-.246.143-.477.303-.719.451v-24.382l33.974-19.614c11.206-6.47 17.902-18.059 17.911-31.001.009-12.936-6.667-24.529-17.851-31.007-.279-.162-.56-.323-.834-.478-10.377-5.861-22.617-6.14-33.2-.871v-21.387l25.248-14.577c9.398-5.426 15.014-15.145 15.021-25.998.008-10.849-5.591-20.572-14.952-25.995-.229-.133-.46-.265-.686-.393-7.034-3.973-15.085-4.887-22.599-2.766l14.088-24.402c5.419-9.387 5.431-20.609.031-30.02-5.37-9.359-15.003-14.981-25.776-15.039l-.375 0-.383.001c-10.765.058-20.398 5.68-25.768 15.039-5.399 9.411-5.388 20.633.031 30.02l14.088 24.402c-7.515-2.121-15.564-1.207-22.594 2.763-.231.131-.462.263-.668.382-9.385 5.437-14.983 15.159-14.976 26.008.007 10.853 5.623 20.572 15.021 25.998l25.249 14.576v21.388c-10.585-5.27-22.822-4.991-33.193.867-.281.159-.561.319-.834.477-11.191 6.482-17.866 18.076-17.857 31.012.009 12.942 6.705 24.531 17.911 31.001l33.973 19.614v24.382c-.242-.148-.473-.308-.719-.451-12.83-7.488-28.177-7.619-41.054-.344-.333.188-.665.378-.989.566-12.996 7.529-20.749 20.993-20.738 36.017.011 15.03 7.787 28.489 20.802 36.002l42.698 24.653v54.772c-4.686-7.278-10.421-14.602-17.458-21.639-27.372-27.372-59.088-35.163-75.558-37.37-3.084-.416-6.194.635-8.399 2.84-2.204 2.205-3.254 5.31-2.84 8.4 2.207 16.469 9.997 48.186 37.369 75.557 23.136 23.137 49.373 32.282 66.886 35.891v19.176c0 5.523 4.477 10 10 10 5.522 0 10-4.477 10-10v-19.195c10.485-2.164 20.963-5.664 30.727-10.328 4.983-2.38 7.094-8.351 4.713-13.333-2.382-4.984-8.353-7.094-13.334-4.712-6.197 2.96-12.724 5.378-19.328 7.177 3.896-14.37 11.995-33.133 28.823-49.96 16.827-16.827 35.591-24.927 49.961-28.823-1.844 6.768-4.337 13.452-7.4 19.79-2.403 4.973-.32 10.952 4.652 13.355 4.971 2.403 10.952.32 13.355-4.652 6.096-12.614 10.275-26.425 12.086-39.941.414-3.092-.636-6.198-2.84-8.402zm-174.158 69.816c-16.83-16.83-24.931-35.599-28.826-49.969 14.371 3.895 33.139 11.995 49.969 28.826 16.831 16.83 24.931 35.598 28.826 49.969-14.371-3.896-33.138-11.995-49.969-28.826zm83.544-148.039c6.619-3.864 14.518-3.94 21.132-.206.267.15.532.302.804.46 6.746 3.908 10.77 10.897 10.764 18.696-.006 7.806-4.044 14.795-10.802 18.697l-32.699 18.879v-37.765c0-7.801 4.038-14.814 10.801-18.761zm-2.883-105.737c4.911-2.868 10.542-2.924 15.453-.15l.631.362c4.94 2.861 7.887 7.98 7.883 13.691-.004 5.717-2.962 10.837-7.911 13.695l-23.974 13.841v-27.689c0-5.716 2.96-10.856 7.918-13.75zm-2.883-89.271c1.47-.859 5.362-2.586 9.764-.101l.469.269c4.518 2.617 5.003 6.947 5.001 8.688-.001 1.742-.492 6.077-5.021 8.691l-15.248 8.803v-17.612c0-3.631 1.882-6.898 5.035-8.738zm-23.838-64.752c.855-1.492 3.4-4.965 8.519-4.992l.284-.001.275.001c5.127.027 7.672 3.5 8.527 4.992.87 1.517 2.612 5.534-.004 10.066l-8.798 15.241-8.799-15.24c-2.616-4.533-.874-8.55-.004-10.067zm-16.445 82.299c-4.528-2.614-5.02-6.949-5.021-8.691-.002-1.741.483-6.071 5.025-8.701l.45-.258c4.393-2.481 8.289-.754 9.759.104 3.153 1.84 5.035 5.106 5.035 8.738v17.613zm-8.726 99.322c-4.949-2.858-7.907-7.978-7.911-13.695-.004-5.711 2.942-10.829 7.89-13.695l.631-.361c4.905-2.769 10.535-2.713 15.446.154 4.958 2.894 7.918 8.034 7.918 13.75v27.689zm-8.724 115.786c-6.758-3.902-10.796-10.891-10.802-18.697-.006-7.799 4.018-14.789 10.77-18.7.265-.154.53-.306.795-.455 6.613-3.735 14.513-3.66 21.134.205 6.763 3.947 10.801 10.96 10.801 18.761v37.765z"/></g></g></svg>